# xmcd
#
# Track frame offsets:
#	150
#	15302
#	30590
#	43285
#	58180
#	70777
#	84135
#	97872
#	112327
#	124792
#	136537
#	150505
#	162462
#	175515
#	186455
#	199452
#	212022
#	224517
#	239572
#	254427
#	269662
#	282572
#	294952
#
# Disc length: 4117 seconds
#
# Revision: 4
# Processed by: cddbd v1.5.1PL0 Copyright (c) Steve Scherf et al.
# Submitted via: EasyCDDAExtractor 8.2.1.1
#
DISCID=5a101317
DTITLE=Various Artist - Men Are Like Street Cars...Women Blues Singers 1928-1
DTITLE=969 [CD1 of 2)
DYEAR=1928
DGENRE=Blues
TTITLE0=Bertha "Chippie" Hill - Some Cold Rainy Day
TTITLE1=Jenny Pope - Whiskey Drinkin' Blues
TTITLE2=Mattie Delaney - Tallahatchie River Blues
TTITLE3=Memphis Minnie - Bumble Bee
TTITLE4=Georgia White - Hot Nuts (Get 'em From the Peanut Man)
TTITLE5=Georgia White - I'll Keep Sittin' On It (If I Can't Sell It)
TTITLE6=Victoria Spavey - Black Snake Swing
TTITLE7=Rosetta Howard - If You' re A Viper
TTITLE8=Trixie Smith - Jack I'm Mellow
TTITLE9=Blue Lu Barker - Don't You Make Me High
TTITLE10=Rosetta Tharpe - My Man And I
TTITLE11=Rosetta Tharpe - Rock Me
TTITLE12=Billie Holliday - I Gotta Right to Sing the Blues
TTITLE13=Rosetta Howard - Men Are Like Street Cars
TTITLE14=Alberta Hunter - Chirpin' the Blues
TTITLE15=Alberta Hunter - Fine and Mellow
TTITLE16=Nora Lee King - Cannon Ball
TTITLE17=Dinah Washington - Blow Top Blues
TTITLE18=Ella Johnson - I'm Tired of Crying Over You
TTITLE19=Billie Holliday - T'Ain't Nobody's Business If I Do
TTITLE20=Rosetta Perry - Worry, Worry, Worry
TTITLE21=Mildred Jones - It's Been a Long Time
TTITLE22=Mabel Scott - Boogie Woogie Choo Choo Train
EXTD=
EXTT0=
EXTT1=
EXTT2=
EXTT3=
EXTT4=
EXTT5=
EXTT6=
EXTT7=
EXTT8=
EXTT9=
EXTT10=
EXTT11=
EXTT12=
EXTT13=
EXTT14=
EXTT15=
EXTT16=
EXTT17=
EXTT18=
EXTT19=
EXTT20=
EXTT21=
EXTT22=
PLAYORDER=
